<?xml version="1.0" encoding="UTF-8" standalone="no"?>
<!-- Created with Inkscape (http://www.inkscape.org/) -->

<svg
   width="40"
   height="auto"
   viewBox="0 0 500 658.15417"
   version="1.1"
   id="svg1"
   xmlns="http://www.w3.org/2000/svg"
   xmlns:svg="http://www.w3.org/2000/svg">
  <defs
     id="defs1" />
  <path
     d="M 22.748091,4.1792154e-6 A 22.747825,22.747825 0 0 0 -9.375e-6,22.748134 V 654.53257 a 3.6215931,3.6215931 0 0 0 3.621599975,3.6216 C 47.477091,587.8452 60.694791,563.63811 73.997991,539.31146 88.182091,513.37375 100.19629,468.66637 100.19629,439.09978 v -44.48379 a 22.316843,22.316843 0 0 1 22.317,-22.31683 96.012368,96.012368 0 0 0 79.1826,-53.62651 l 5.7137,-9.79421 a 13.351058,13.351058 0 0 0 -11.5316,-20.07781 h -76.7172 A 18.964422,18.964422 0 0 1 100.19629,269.8362 V 107.62309 a 24.127026,24.127026 0 0 1 24.1277,-24.127639 h 111.4313 c 9.7214,0 19.007,0.32215 27.8563,0.96351 37.4868,2.71696 82.0282,-12.49847 101.0437,-45.089437 l 5.8148,-9.96549 c 2.1913,-3.75549 0.6781,-8.07112 -3.4258,-9.50668 C 329.12289,6.6324542 283.72239,4.1792154e-6 230.84289,4.1792154e-6 Z M 411.56479,43.306184 c -9.4788,-0.42124 -20.1674,6.167537 -26.4617,16.954787 l -5.8575,10.04197 c -13.3116,22.81445 -4.0108,53.874459 5.1358,78.219069 3.7314,9.93107 5.5976,20.9996 5.5976,33.20609 0,36.67324 -12.4409,63.85 -37.3264,81.53174 -13.9733,9.81906 -33.0633,16.80822 -57.2725,20.96486 -23.7495,4.07772 -53.2781,21.13182 -65.4304,41.9603 l -17.2668,29.59369 a 10.984965,10.984965 0 0 0 9.4884,16.52047 h 11.6202 c 56.3196,0 97.9022,7.52989 124.7524,22.59213 27.5049,14.40733 41.2598,39.2921 41.2598,74.65558 0,22.26588 -4.584,40.27778 -13.7522,54.03025 -9.1684,13.75245 -21.6122,24.22832 -37.3295,31.43199 -15.0622,7.20368 -32.744,12.44468 -53.0452,15.71906 -20.3013,2.61952 -41.9132,3.92747 -64.8339,3.92747 l -115.7686,3.13219 -26.232099,-1.02467 -52.5805,81.39101 H 225.93349 c 38.6379,0 74.3285,-2.94902 107.0727,-8.84293 33.3987,-6.54879 62.5406,-16.69768 87.4259,-30.45013 24.8854,-14.40734 44.2022,-33.07323 57.9548,-55.99399 14.4073,-23.57563 21.6131,-52.39041 21.6131,-86.44413 0,-37.98299 -8.8409,-68.43268 -26.5225,-91.35345 -17.0269,-22.92076 -41.2577,-39.29468 -72.6918,-49.11786 -3.4699,-1.1566 -6.9998,-2.25028 -10.5895,-3.279 -7.3855,-2.1165 -7.4941,-5.29507 -0.3243,-8.05377 2.0238,-0.77873 4.0247,-1.58487 6.0013,-2.4195 29.4695,-12.4427 52.3893,-31.10552 68.7612,-55.99091 17.027,-24.88542 25.5409,-55.33818 25.5409,-91.35653 0,-55.66471 -23.2467,-98.558349 -69.7432,-128.682779 -2.6838,-1.801957 -5.7078,-2.722527 -8.8673,-2.863007 z"
     style="font-weight:500;font-size:627.241px;font-family:'Chillax Variable';-inkscape-font-specification:'Chillax Variable Medium';fill:#001514;stroke-width:10.2325"
     id="path83" />
</svg>
