<?xml version="1.0" encoding="UTF-8" standalone="no"?>
<!-- Created with Inkscape (http://www.inkscape.org/) -->

<svg
   width="400"
   height="473.19592"
   viewBox="0 0 400 473.19592"
   version="1.1"
   id="svg1"
   xmlns="http://www.w3.org/2000/svg"
   xmlns:svg="http://www.w3.org/2000/svg">
  <defs
     id="defs1" />
  <g
     id="layer1"
     transform="translate(-50,-13.40204)">
    <path
       d="m 250.33361,13.40204 a 117.53359,138.86418 0 0 0 -117.53396,138.86461 117.53359,138.86418 0 0 0 25.12222,85.80404 H 108.4153 A 58.414735,72.588351 0 0 0 50,310.65813 v 153.45394 a 18.095002,22.485531 0 0 0 18.095167,22.48589 H 427.77997 A 22.220171,27.611622 0 0 0 450,458.9862 V 303.95566 A 53.019581,65.884129 0 0 0 396.9799,238.07069 H 342.74534 A 117.53359,138.86418 0 0 0 367.86756,152.26665 117.53359,138.86418 0 0 0 250.33361,13.40204 Z"
       style="fill:#fbfffe;stroke-width:0.79035"
       id="path2" />
  </g>
</svg>
